# xmcd
#
# Track frame offsets:
# 150
# 15098
# 28042
# 40294
# 54560
# 65966
# 79672
# 92336
# 108942
# 121578
# 134340
# 145468
# 158426
# 168737
#
# Disc length: 2368 seconds
#
#
# Revision: 0
# Processed by: cddbd v1.5PL3 Copyright (c) Steve Scherf et al.
# Submitted via: FreeRIP 2.53 
#
DISCID=ae093e0e
DTITLE=Travis, Randy - Heroes And Friends
DYEAR=1900
DGENRE=
TTITLE0=Heroes And Friends
TTITLE1=Do I Ever Cross Your Mind (Duet with Dolly Parton)
TTITLE2=Birth Of The Blues (Duet with Willie Nelson)
TTITLE3=All Night Long (Duet with Merle Haggard)
TTITLE4=The Human Race (Duet with Vern Gosdin)
TTITLE5=Shopping For Dresses (Duet with Loretta Lynn)
TTITLE6=Waiting On The Light To Change (Duet with B.B. King)
TTITLE7=A Few Ol' Country Boys (Duet with George Jones)
TTITLE8=Walk Our Own Road (Duet with Kris Kristofferson)
TTITLE9=We're Strangers Again (Duet with Tammy Wynette)
TTITLE10=Smokin' The Hive (Duet with Clint Eastwood)
TTITLE11=Come See About Me (Duet with Conway Twitty)
TTITLE12=Happy Trails (Duet with Roy Rodgers)
TTITLE13=Heroes And Friends (Reprise)
EXTD=
EXTT0=
EXTT1=
EXTT2=
EXTT3=
EXTT4=
EXTT5=
EXTT6=
EXTT7=
EXTT8=
EXTT9=
EXTT10=
EXTT11=
EXTT12=
EXTT13=
PLAYORDER=
